<?xml version="1.0" encoding="UTF-8" standalone="no"?>
<!-- This is a Stata 18.5 generated SVG file (http://www.stata.com) -->

<svg version="1.1" width="7.500in" height="4.500in" viewBox="0 0 5400 3240" xmlns="http://www.w3.org/2000/svg" xmlns:xlink="http://www.w3.org/1999/xlink">
	<desc>Stata Graph - Graph</desc>
	<rect x="0" y="0" width="5400" height="3240" style="fill:#FFFFFF;stroke:none"/>
	<rect x="0.00" y="0.00" width="5400.00" height="3240.00" style="fill:#FFFFFF"/>
	<rect x="3.24" y="3.24" width="5393.52" height="3233.52" style="fill:none;stroke:#FFFFFF;stroke-width:6.48"/>
	<rect x="38.81" y="38.81" width="3415.67" height="3162.38" style="fill:#FFFFFF"/>
	<rect x="42.05" y="42.05" width="3409.19" height="3155.90" style="fill:none;stroke:#FFFFFF;stroke-width:6.48"/>
	<defs>
		<clipPath id="clipPath_LcmBJuFp">
			<path d="M1746.73 1620.00 L1746.73 110.19 A1509.81 1509.81 0 1 0 1746.73 110.19 Z"/>
		</clipPath>
	</defs>
	<path d="M1746.73 1620.00 L1746.73 110.19 A1509.81 1509.81 0 1 0 1746.73 110.19 Z" style="stroke:none;fill:#3191FF"/>
	<path d="M1746.73 1620.00 L1746.73 110.19 A1509.81 1509.81 0 1 0 1746.73 110.19 Z" style="fill:none;stroke:#1A85FF;stroke-width:6.00" clip-path="url(#clipPath_LcmBJuFp)"/>
	<defs>
		<clipPath id="clipPath_CoePOBpx">
			<path d="M1746.73 1620.00 L1746.73 110.19 A1509.81 1509.81 0 1 0 1746.73 110.19 Z"/>
		</clipPath>
	</defs>
	<path d="M1746.73 1620.00 L1746.73 110.19 A1509.81 1509.81 0 1 0 1746.73 110.19 Z" style="stroke:none;fill:#FFD819"/>
	<path d="M1746.73 1620.00 L1746.73 110.19 A1509.81 1509.81 0 1 0 1746.73 110.19 Z" style="fill:none;stroke:#FFD400;stroke-width:6.00" clip-path="url(#clipPath_CoePOBpx)"/>
	<defs>
		<clipPath id="clipPath_vSUdyAJw">
			<path d="M1746.73 1620.00 L2263.12 201.25 A1509.81 1509.81 0 0 0 1746.73 110.19 Z"/>
		</clipPath>
	</defs>
	<path d="M1746.73 1620.00 L2263.12 201.25 A1509.81 1509.81 0 0 0 1746.73 110.19 Z" style="stroke:none;fill:#FF7347"/>
	<path d="M1746.73 1620.00 L2263.12 201.25 A1509.81 1509.81 0 0 0 1746.73 110.19 Z" style="fill:none;stroke:#FF6333;stroke-width:6.00" clip-path="url(#clipPath_vSUdyAJw)"/>
	<defs>
		<clipPath id="clipPath_aFeGzVxK">
			<path d="M1746.73 1620.00 L2287.80 210.47 A1509.81 1509.81 0 0 0 2263.12 201.25 Z"/>
		</clipPath>
	</defs>
	<path d="M1746.73 1620.00 L2287.80 210.47 A1509.81 1509.81 0 0 0 2263.12 201.25 Z" style="stroke:none;fill:#89192C"/>
	<path d="M1746.73 1620.00 L2287.80 210.47 A1509.81 1509.81 0 0 0 2263.12 201.25 Z" style="fill:none;stroke:#7C0015;stroke-width:6.00" clip-path="url(#clipPath_aFeGzVxK)"/>
	<defs>
		<clipPath id="clipPath_jgEeqRug">
			<path d="M1746.73 1620.00 L2360.82 240.72 A1509.81 1509.81 0 0 0 2287.80 210.47 Z"/>
		</clipPath>
	</defs>
	<path d="M1746.73 1620.00 L2360.82 240.72 A1509.81 1509.81 0 0 0 2287.80 210.47 Z" style="stroke:none;fill:#27F1B7"/>
	<path d="M1746.73 1620.00 L2360.82 240.72 A1509.81 1509.81 0 0 0 2287.80 210.47 Z" style="fill:none;stroke:#0FEFAF;stroke-width:6.00" clip-path="url(#clipPath_jgEeqRug)"/>
	<defs>
		<clipPath id="clipPath_hKzuhsZd">
			<path d="M1746.73 1620.00 L2795.53 533.94 A1509.81 1509.81 0 0 0 2360.82 240.72 Z"/>
		</clipPath>
	</defs>
	<path d="M1746.73 1620.00 L2795.53 533.94 A1509.81 1509.81 0 0 0 2360.82 240.72 Z" style="stroke:none;fill:#FBAC20"/>
	<path d="M1746.73 1620.00 L2795.53 533.94 A1509.81 1509.81 0 0 0 2360.82 240.72 Z" style="fill:none;stroke:#FAA307;stroke-width:6.00" clip-path="url(#clipPath_hKzuhsZd)"/>
	<defs>
		<clipPath id="clipPath_nqHfLprt">
			<path d="M1746.73 1620.00 L2832.79 571.20 A1509.81 1509.81 0 0 0 2795.53 533.94 Z"/>
		</clipPath>
	</defs>
	<path d="M1746.73 1620.00 L2832.79 571.20 A1509.81 1509.81 0 0 0 2795.53 533.94 Z" style="stroke:none;fill:#8397FD"/>
	<path d="M1746.73 1620.00 L2832.79 571.20 A1509.81 1509.81 0 0 0 2795.53 533.94 Z" style="fill:none;stroke:#758BFD;stroke-width:6.00" clip-path="url(#clipPath_nqHfLprt)"/>
	<defs>
		<clipPath id="clipPath_LlZoGBYp">
			<path d="M1746.73 1620.00 L2903.31 649.52 A1509.81 1509.81 0 0 0 2832.79 571.20 Z"/>
		</clipPath>
	</defs>
	<path d="M1746.73 1620.00 L2903.31 649.52 A1509.81 1509.81 0 0 0 2832.79 571.20 Z" style="stroke:none;fill:#FEDDBE"/>
	<path d="M1746.73 1620.00 L2903.31 649.52 A1509.81 1509.81 0 0 0 2832.79 571.20 Z" style="fill:none;stroke:#FED9B7;stroke-width:6.00" clip-path="url(#clipPath_LlZoGBYp)"/>
	<defs>
		<clipPath id="clipPath_SSpGzLHF">
			<path d="M1746.73 1620.00 L2983.49 2485.99 A1509.81 1509.81 0 0 0 2903.31 649.52 Z"/>
		</clipPath>
	</defs>
	<path d="M1746.73 1620.00 L2983.49 2485.99 A1509.81 1509.81 0 0 0 2903.31 649.52 Z" style="stroke:none;fill:#21395E"/>
	<path d="M1746.73 1620.00 L2983.49 2485.99 A1509.81 1509.81 0 0 0 2903.31 649.52 Z" style="fill:none;stroke:#08234C;stroke-width:6.00" clip-path="url(#clipPath_SSpGzLHF)"/>
	<defs>
		<clipPath id="clipPath_hiYeoocP">
			<path d="M1746.73 1620.00 L1746.73 110.19 A1509.81 1509.81 0 1 0 2983.49 2485.99 Z"/>
		</clipPath>
	</defs>
	<path d="M1746.73 1620.00 L1746.73 110.19 A1509.81 1509.81 0 1 0 2983.49 2485.99 Z" style="stroke:none;fill:#276267"/>
	<path d="M1746.73 1620.00 L1746.73 110.19 A1509.81 1509.81 0 1 0 2983.49 2485.99 Z" style="fill:none;stroke:#0F5156;stroke-width:6.00" clip-path="url(#clipPath_hiYeoocP)"/>
	<text x="1522.80" y="65.78" style="font-family:'Helvetica';font-size:89.94px;fill:#000000" text-anchor="middle">Geothermal</text>
	<text x="1920.54" y="660.12" style="font-family:'Helvetica';font-size:89.94px;fill:#000000" text-anchor="middle">Hydro</text>
	<text x="2634.36" y="97.84" style="font-family:'Helvetica';font-size:89.94px;fill:#000000" text-anchor="middle">Municipal Solid Waste</text>
	<text x="2811.71" y="212.09" style="font-family:'Helvetica';font-size:89.94px;fill:#000000" text-anchor="middle">Natural Gas Non-Peaker</text>
	<text x="2838.88" y="391.13" style="font-family:'Helvetica';font-size:89.94px;fill:#000000" text-anchor="middle">Natural Gas Peaker</text>
	<text x="2963.59" y="519.72" style="font-family:'Helvetica';font-size:89.94px;fill:#000000" text-anchor="middle">Nuclear</text>
	<text x="3133.35" y="617.76" style="font-family:'Helvetica';font-size:89.94px;fill:#000000" text-anchor="middle">Offshore Wind</text>
	<text x="2752.48" y="1610.85" style="font-family:'Helvetica';font-size:89.94px;fill:#000000" text-anchor="middle">Onshore Wind</text>
	<text x="852.19" y="2113.05" style="font-family:'Helvetica';font-size:89.94px;fill:#000000" text-anchor="middle">Solar PV</text>
	<rect x="3493.46" y="333.96" width="1828.74" height="2572.09" style="fill:#FFFFFF"/>
	<rect x="3496.70" y="337.20" width="1822.26" height="2565.61" style="fill:none;stroke:#FFFFFF;stroke-width:6.48"/>
	<rect x="3542.06" y="382.56" width="259.20" height="112.39" style="fill:#3191FF"/>
	<rect x="3543.56" y="384.06" width="256.20" height="109.39" style="fill:none;stroke:#3191FF;stroke-width:3.00"/>
	<rect x="3542.06" y="540.00" width="259.20" height="112.56" style="fill:#D8296A"/>
	<rect x="3543.56" y="541.50" width="256.20" height="109.56" style="fill:none;stroke:#D8296A;stroke-width:3.00"/>
	<rect x="3542.06" y="697.44" width="259.20" height="112.56" style="fill:#19C58C"/>
	<rect x="3543.56" y="698.94" width="256.20" height="109.56" style="fill:none;stroke:#19C58C;stroke-width:3.00"/>
	<rect x="3542.06" y="855.06" width="259.20" height="112.39" style="fill:#FFD819"/>
	<rect x="3543.56" y="856.56" width="256.20" height="109.39" style="fill:none;stroke:#FFD819;stroke-width:3.00"/>
	<rect x="3542.06" y="1012.50" width="259.20" height="112.56" style="fill:#6141A3"/>
	<rect x="3543.56" y="1014.00" width="256.20" height="109.56" style="fill:none;stroke:#6141A3;stroke-width:3.00"/>
	<rect x="3542.06" y="1169.94" width="259.20" height="112.56" style="fill:#FF7347"/>
	<rect x="3543.56" y="1171.44" width="256.20" height="109.56" style="fill:none;stroke:#FF7347;stroke-width:3.00"/>
	<rect x="3542.06" y="1327.56" width="259.20" height="112.39" style="fill:#5FBEFF"/>
	<rect x="3543.56" y="1329.06" width="256.20" height="109.39" style="fill:none;stroke:#5FBEFF;stroke-width:3.00"/>
	<rect x="3542.06" y="1485.00" width="259.20" height="112.56" style="fill:#89192C"/>
	<rect x="3543.56" y="1486.50" width="256.20" height="109.56" style="fill:none;stroke:#89192C;stroke-width:3.00"/>
	<rect x="3542.06" y="1642.44" width="259.20" height="112.56" style="fill:#27F1B7"/>
	<rect x="3543.56" y="1643.94" width="256.20" height="109.56" style="fill:none;stroke:#27F1B7;stroke-width:3.00"/>
	<rect x="3542.06" y="1800.06" width="259.20" height="112.39" style="fill:#FBAC20"/>
	<rect x="3543.56" y="1801.56" width="256.20" height="109.39" style="fill:none;stroke:#FBAC20;stroke-width:3.00"/>
	<rect x="3542.06" y="1957.50" width="259.20" height="112.56" style="fill:#8397FD"/>
	<rect x="3543.56" y="1959.00" width="256.20" height="109.56" style="fill:none;stroke:#8397FD;stroke-width:3.00"/>
	<rect x="3542.06" y="2114.94" width="259.20" height="112.56" style="fill:#FEDDBE"/>
	<rect x="3543.56" y="2116.44" width="256.20" height="109.56" style="fill:none;stroke:#FEDDBE;stroke-width:3.00"/>
	<rect x="3542.06" y="2272.56" width="259.20" height="112.39" style="fill:#21395E"/>
	<rect x="3543.56" y="2274.06" width="256.20" height="109.39" style="fill:none;stroke:#21395E;stroke-width:3.00"/>
	<rect x="3542.06" y="2430.00" width="259.20" height="112.56" style="fill:#F998B5"/>
	<rect x="3543.56" y="2431.50" width="256.20" height="109.56" style="fill:none;stroke:#F998B5;stroke-width:3.00"/>
	<rect x="3542.06" y="2587.44" width="259.20" height="112.56" style="fill:#276267"/>
	<rect x="3543.56" y="2588.94" width="256.20" height="109.56" style="fill:none;stroke:#276267;stroke-width:3.00"/>
	<rect x="3542.06" y="2745.06" width="259.20" height="112.39" style="fill:#3191FF"/>
	<rect x="3543.56" y="2746.56" width="256.20" height="109.39" style="fill:none;stroke:#3191FF;stroke-width:3.00"/>
	<text x="3868.76" y="478.19" style="font-family:'Helvetica';font-size:112.56px;fill:#000000">Biomass</text>
	<text x="3868.76" y="635.63" style="font-family:'Helvetica';font-size:112.56px;fill:#000000">Coal</text>
	<text x="3868.76" y="793.24" style="font-family:'Helvetica';font-size:112.56px;fill:#000000">Crude Oil</text>
	<text x="3868.76" y="950.69" style="font-family:'Helvetica';font-size:112.56px;fill:#000000">Geothermal</text>
	<text x="3868.76" y="1108.13" style="font-family:'Helvetica';font-size:112.56px;fill:#000000">Heavy or Residual Fuel Oil</text>
	<text x="3868.76" y="1265.74" style="font-family:'Helvetica';font-size:112.56px;fill:#000000">Hydro</text>
	<text x="3868.76" y="1423.19" style="font-family:'Helvetica';font-size:112.56px;fill:#000000">Lignite</text>
	<text x="3868.76" y="1580.63" style="font-family:'Helvetica';font-size:112.56px;fill:#000000">Municipal Solid Waste</text>
	<text x="3868.76" y="1738.24" style="font-family:'Helvetica';font-size:112.56px;fill:#000000">Natural Gas Non-Peaker</text>
	<text x="3868.76" y="1895.69" style="font-family:'Helvetica';font-size:112.56px;fill:#000000">Natural Gas Peaker</text>
	<text x="3868.76" y="2053.13" style="font-family:'Helvetica';font-size:112.56px;fill:#000000">Nuclear</text>
	<text x="3868.76" y="2210.74" style="font-family:'Helvetica';font-size:112.56px;fill:#000000">Offshore Wind</text>
	<text x="3868.76" y="2368.19" style="font-family:'Helvetica';font-size:112.56px;fill:#000000">Onshore Wind</text>
	<text x="3868.76" y="2525.63" style="font-family:'Helvetica';font-size:112.56px;fill:#000000">Petroleum</text>
	<text x="3868.76" y="2683.24" style="font-family:'Helvetica';font-size:112.56px;fill:#000000">Solar PV</text>
	<text x="3868.76" y="2840.69" style="font-family:'Helvetica';font-size:112.56px;fill:#000000">Solar Thermal</text>
</svg>
